<?xml version="1.0" encoding="UTF-8"?>
<svg id="Layer_1" xmlns="http://www.w3.org/2000/svg" version="1.1" viewBox="0 0 582.5 1325.1">
  <!-- Generator: Adobe Illustrator 29.1.0, SVG Export Plug-In . SVG Version: 2.1.0 Build 142)  -->
  <defs>
    <style>
      .st0 {
        fill: #006bd9;
      }
    </style>
  </defs>
  <path class="st0" d="M495.2,0c-48.3,0-87.4,39.1-87.4,87.4v305.8c0,8-6.5,14.6-14.6,14.6s-14.6-6.5-14.6-14.6V87.4c0-48.3-39.1-87.4-87.4-87.4s-87.4,39.1-87.4,87.4v305.8c0,8-6.5,14.6-14.6,14.6s-14.6-6.5-14.6-14.6V87.4C174.8,39.1,135.6,0,87.4,0S0,39.1,0,87.4v407.8c0,48.3,39.1,87.4,87.4,87.4h407.8c48.3,0,87.4-39.1,87.4-87.4V87.4c0-48.3-39.1-87.4-87.4-87.4"/>
  <path class="st0" d="M495.2,611.7H14.6C6.5,611.7,0,618.2,0,626.2v72.8c0,48.3,39.1,87.4,87.4,87.4h305.8c8,0,14.6,6.5,14.6,14.6v160.2c0,64.3-52.2,116.5-116.5,116.5s-116.5-52.2-116.5-116.5h0c0-47.9,25.2-89.5,59.8-120.1,10.1-8.9,4-25.6-9.5-25.6H87.4C39.1,815.6,0,854.7,0,902.9v203.9c0,48.3,39.1,87.4,87.4,87.4h407.8c48.3,0,87.4-39.1,87.4-87.4v-335s0-72.8,0-72.8c0-48.3-39.1-87.4-87.4-87.4"/>
  <path class="st0" d="M291.3,1048.6c48.3,0,87.4-39.1,87.4-87.4v-131.1c0-8-6.5-14.6-14.6-14.6-58.2,0-160.2,58.3-160.2,145.6,0,48.3,39.1,87.4,87.4,87.4"/>
  <path class="st0" d="M232.4,1237.7v8.9h17c1.6,0,2.9,1.3,2.9,2.9v10.8c0,3.2-2.6,5.8-5.8,5.8h-14v28.7c0,7.4,2.2,10,8.4,10s5.6-.8,8.1-2.3c1.4-.9,3.1-.4,3.7,1.1,1.2,2.9,4.8,11.6,4.8,11.6.6,1.4.2,2.6-1.1,3.5-5.2,3.9-14.3,6.4-23.3,6.4-16.4,0-24.4-8.6-24.4-26.3v-64.1c0-1.6,1.3-2.9,2.9-2.9h15.1c3.2,0,5.8,2.6,5.8,5.8M130.6,1223.3h-15.5c-1.4,0-2.6.9-2.9,2.2l-14.8,63-16-60.9c-.7-2.6-3.1-4.4-5.8-4.4h-16.4c-1.3,0-2.5.9-2.9,2.1l-16.6,62.4-14.3-60.1c-.6-2.7-3.1-4.5-5.9-4.5H2.9c-1.9,0-3.3,1.8-2.8,3.6l24.1,92.5c.7,2.6,3.1,4.4,5.8,4.4h20.3c1.3,0,2.5-.9,2.9-2.1l15.3-57.9,14.9,55.7c.7,2.6,3.1,4.4,5.8,4.4h20.4c1.3,0,2.5-.9,2.8-2.1l23.7-91.1c1-3.7-1.8-7.3-5.6-7.3M582.5,1229.2v83.7c0,2-1.1,3.8-3.1,5.1-7.9,5.1-15.8,7.2-27.5,7.2-25,0-41.9-13.7-41.9-39.8s16.3-40.1,34.3-40.1,10.1.9,13.8,3h.2c0,.1,0-22.1,0-22.1,0-1.6,1.3-2.8,2.9-2.8h15.4c3.3,0,5.9,2.6,5.9,5.8M558.3,1268.2c-2.9-1.9-5.4-3-9.4-3-10.7,0-16.8,7.1-16.8,19.4s7.2,21,20.3,21,3.6-.2,5.9-.7v-36.7ZM175.1,1276.3v-2.5c0-7-7.1-10-13.7-10s-12.6,2.2-17,4.1c-1.4.6-3.3,0-3.8-1.7-1-2.9-3.9-11.5-3.9-11.5-.5-1.4.2-2.9,1.5-3.5,8.9-4,17.9-6,27.5-6,21.9,0,32.9,9.3,32.9,27.7v42.7c0,2.6-1.9,4.8-4.9,5.7-8.3,2.6-16.4,3.7-27.1,3.7-23.4,0-36.5-8.3-36.5-23.9s15.2-25.3,35.8-25.3,9.2.3,9.2.3M175.1,1290.7s-3.5-.7-8.1-.7c-8.3,0-14.5,4.5-14.5,10.3s5.5,9.4,13,9.4,7-.2,9.6-.7v-18.3ZM379.7,1317.4l31.5-92.2c.4-1.1,1.5-1.9,2.7-1.9h21c2.5,0,4.7,1.6,5.5,3.9l31.8,92.8c.6,1.9-.7,3.8-2.7,3.8h-16.5c-3.3,0-6.1-2.1-7-5.3l-4.7-15.8h-31.6l-5.5,18.7c-.4,1.4-1.7,2.4-3.2,2.4h-16.7c-3.3,0-5.7-3.3-4.6-6.5M414.9,1285.4h21.3l-10.6-36.1-10.7,36.1ZM481.8,1249.1c-1.6,0-2.9,1.3-2.9,2.8v66.1c0,3.2,2.6,5.8,5.8,5.8h15.1c1.6,0,2.9-1.3,2.9-2.9v-66.1c0-3.2-2.6-5.8-5.8-5.8h-15.1ZM490.8,1220.4c-7.2,0-12,4.5-12,11.2s4.8,11.2,12,11.2,12-4.5,12-11.2-4.8-11.2-12-11.2M352.5,1246.7h-12.2c-1.6,0-2.9,1.3-2.9,2.9v68.5c0,3.2,2.6,5.8,5.8,5.8h15.1c1.6,0,2.9-1.3,2.9-2.9v-36.4c0-10.4,7.2-18.3,16.6-18.3s4.3.1,5.9.4c1.4.3,2.8-.5,3.3-2l4.5-14.5c.5-1.5-.4-3.1-1.9-3.5-2.1-.7-5.6-1.4-10.4-1.4-7.9,0-15.7,4.1-21,11.3v-4.2c0-3.2-2.6-5.8-5.8-5.8M326.7,1292.1h-47.3c1.4,9,11.5,14.1,20.7,14.1s9-.7,14.5-2.7c1.4-.5,3,.1,3.7,1.5l4.7,11.6c.6,1.4,0,3-1.4,3.7-7.6,3.7-14.7,4.9-23.5,4.9-28.6,0-40.1-18.5-40.1-39.4s13.8-40.5,36.8-40.5,35.4,12.4,35.4,34.8-.1,6-.4,9.4c-.1,1.5-1.4,2.6-2.9,2.6M309.2,1276.9c0-4.8-4.7-13.2-14.1-13.2s-15.7,7.9-15.7,13.2h29.9Z"/>
</svg>