<svg xmlns="http://www.w3.org/2000/svg" viewBox="0 0 483.15 395.35"><defs><style>.cls-1{fill:#2f3449;}</style></defs><g id="Layer_2" data-name="Layer 2"><g id="Layer_1-2" data-name="Layer 1"><path class="cls-1" d="M340.76,303.1c-.59,1.69-1,3.45-1.48,5.18-12,27.36-27.64,52-51.81,70.43-10.87,6.31-21.69,12.74-34.28,15.16-21,4-40.77-.61-60-8.69-20.13-8.47-38-20.6-55.23-33.9-9.51-7.37-19.14-14.56-28-22.68-3.81-6.25-10.1-10.14-15-15.37a200.32,200.32,0,0,1-26.81-37,219.56,219.56,0,0,1-22.42-54.79C40,199.18,37.27,176.55,38.6,153.6c.78-13.23,1.94-26.52,6.52-39.15,1.38-3.83,1.82-3.81,4.56-2.89-1.68,13-2.63,26-1.36,39.23,2.57,26.61,11.37,50.86,28,71.67,27.53,34.48,62.41,59,105.14,70.66,22.7,6.21,45.93,5.92,68.23-3.8a58.09,58.09,0,0,1,10.3-3.14c7.81-1.8,14.9.83,18.46,6.62,3.23,5.25,2.07,13.9-2.66,19.63-5.19,6.26-12.12,10.08-19.28,13.5-16.55,7.9-34.27,10.46-52.35,11.42-1.32.08-2.79-.44-4.4,1a100.67,100.67,0,0,0,42.8,3.28c27.38-3.9,45.17-20.7,59.05-43.11,8.15-13.17,13.26-27.4,16.38-42.47a59.23,59.23,0,0,1,2-6.72c2.77-8.48,9-13.14,16-12.08,6.49,1,11.68,8.23,12,16.5A130.79,130.79,0,0,1,340.76,303.1Z"/><path class="cls-1" d="M234.55,39.62c2.87,1.41,4.13,6.15,7.25,5.5,2.5-.52,4.35-4,6.55-6.13C272.92,15.56,302,2.37,336,.5a94,94,0,0,0,15.29,0A130.33,130.33,0,0,1,422,25.11c30.36,21.72,49.74,51.08,57.64,87.39,7.72,35.52,2.51,70-12,103.11-13,29.64-32,55.13-55.67,77.15-1.07,1-2.08,3.23-3.78,2.4-2.11-1-.33-3.19-.47-4.84,0-.18.08-.36.06-.54-1.49-15.38,9.28-25.37,16.55-36.72,14.21-22.17,22.35-46.33,25.46-72.33a124.29,124.29,0,0,0-.07-23.78c-2.25-12.91-4.91-25.66-10.45-37.7-14.05-30.49-36.51-51.92-68.08-63.4-15.69-5.71-31.92-8.31-48.72-6.11-22.18,2.91-40.84,12.89-57.05,27.89a126.32,126.32,0,0,0-9.29,9.65c-7.25,8.32-20.75,7.38-27.74.25C208.48,67.24,183.58,56.16,156,51.15c-22.68-4.12-45.35-4-67.72,2.45-1.38.4-2.79.67-4.19,1-1.1-3.49,1.81-4.87,3.75-6.41,10.23-8.1,21.87-13.7,34.12-17.88,16.4-5.59,33.31-9.07,50.69-8.6a141.36,141.36,0,0,1,50.31,10.43C227.36,34,229.63,38.81,234.55,39.62Z"/><path class="cls-1" d="M216,174.66c14.53,11.49,28,24.23,42,36.34,16,13.9,31.86,28.06,47.88,42,2.35,2,2.95,3.74,2.14,6.86-3,11.57-7,22.64-13.23,32.91-2,3.26-3.06,3.45-5.67.49q-30.28-34.42-60.87-68.61l-30.46-34.25c-1.43-1.6-2.52-3.19-5.35-2.27-20.79,6.78-39.39.79-56.82-10.46a92,92,0,0,1-30.17-32.5c1.2-4.06,1-7.71-2.65-10.62-4-3.2-3.2-8.26-3.72-12.41-.82-6.59-.41-13.37-.24-20.07C99,95.14,106.27,87.89,113,88.29c1,2.41,2.58,3.18,5.32,2.7,24.65-4.34,43.34,7,60.46,22.88,7.92,7.34,13.47,16.2,18.55,25.5,3.82,7.52,6.77,15.25,5.56,23.91-.21,1.52-.2,2.82,1,3.89,2.27,2.14,5,3.8,7,6.22C212.2,174.9,213.94,175.82,216,174.66Z"/><path class="cls-1" d="M307.65,198.9c-6.71-.43-13.69-1.28-19.95-4.85-2.64-1.51-4.4-1.42-6.41,1.08-3.26,4.07-7,7.78-10.31,11.78-1.62,1.93-2.79,2.26-4.79.41-5-4.63-10.17-9.15-15.44-13.5-2.5-2.06-1.7-3.28.31-4.94,4.43-3.66,8.68-7.55,13.14-11.19,1.91-1.56,2.77-2.83,1.47-5.39-9.2-18.2-3.83-40.63,12.43-55.25s31.52-30.59,47.26-45.9a18.73,18.73,0,0,1,5.53-4.21c4.48-1.84,8.53-.71,11.47,3.28,2.64,3.59,1.95,8.43-1.84,12.15q-22.36,21.91-44.84,43.73c-3.62,3.52-4.1,7.57-1.59,11.76s6.49,4.95,10.86,3.68c2.64-.77,4.47-3,6.41-4.83,14.12-13.63,28.26-27.22,42.31-40.92,3.66-3.57,7.69-4.71,12.24-2.4,5.81,3,6.51,9.93,1.43,14.93-11.41,11.24-23,22.33-34.46,33.48-3.49,3.39-7,6.73-10.42,10.2-4.37,4.48-4.65,9.52-.9,13.36s9.83,3.85,14-.17Q358,143.73,380.34,122.1c5.05-4.86,10.73-5.17,14.63-.82,3.46,3.87,3.67,9-.07,12.62-18.75,18.17-37.4,36.44-56.53,54.19C330,195.82,319.39,198.87,307.65,198.9Z"/><path class="cls-1" d="M234.55,39.62c-1.5,2.22-2.83.52-4.05-.29-13.72-9.18-29.5-11.85-45.34-14.21-20.56-3.06-40.51.63-60,6.82-15.1,4.8-29.3,11.69-41.12,22.67C71,59.68,58.32,65.29,47.69,74.8c-20.14,18-32.23,40.48-37.46,66.78-1.23,6.16-2,12.41-3,18.62a62.44,62.44,0,0,0,0,17.27l.85,5.28c-.35,1.08-.65,2.26-2.18,1.23-3.4-9.74-5-19.85-5.94-30.07A151.7,151.7,0,0,0,0,133,140.28,140.28,0,0,1,21.19,66.68c17.59-28.19,42-48.21,73.47-59.3a119.19,119.19,0,0,1,35.77-7,146.12,146.12,0,0,0,19.74.1C182.93,3.55,211.23,16.22,234.55,39.62Z"/><path class="cls-1" d="M49.68,111.57c-3.37,3.88-4.07,8.7-4.94,13.53a219.36,219.36,0,0,0-4,40.11,221.4,221.4,0,0,0,14.62,77.94A211.14,211.14,0,0,0,82.62,293.7c8,10.84,15.9,21.63,25.74,30.89,1.08,1,2.86,2,1.62,4a402.28,402.28,0,0,1-38.67-35.73C54.25,275,39.54,255.51,29.16,233c-7.78-16.9-13.06-34.5-13.88-53.24.27-6.87.21-13.75,0-20.62,2.34-32.05,15.58-58.81,39.33-80.35,4.1-3.72,8.68-6.9,13.08-10.27.34-.26,1-.1,2.44-.2C59.74,81.45,54,96.2,49.68,111.57Z"/><path class="cls-1" d="M195.35,286.78c-14.51-1.67-27.29-6.34-39.66-12.38-2.88-1.4-2.25-2.55-.29-4.21q27.67-23.26,55.27-46.64c2.39-2,3.91-2.31,6.13.38,5.16,6.23,10.57,12.27,16.1,18.18,2.23,2.39,2.12,4,0,6.37q-16.38,17.93-32.55,36C198.72,286.34,196.94,287.07,195.35,286.78Z"/><path class="cls-1" d="M366,323.7A53,53,0,0,1,348.05,346q-16.17,11.58-32.39,23.1c-3.74,2.4-4.91,2.89-7.71,5.17a48.65,48.65,0,0,1-4.26,2.92,12.18,12.18,0,0,1-3.91,1.88,10.73,10.73,0,0,1,4.19-4.6l.63-.45c4.35-4.73,9-9.23,13-14.22,11.55-14.23,21.44-29.48,27.31-47,8-18.2,11.15-37.31,10.71-57.12-.09-3.93-1.59-8.69,4-10.45,4.71-1.5,10.53,1.75,13.3,7a29.16,29.16,0,0,1,2.94,12.48C376.82,285.06,374.11,304.88,366,323.7Z"/><path class="cls-1" d="M216,174.66c-1.59,4.91-4.23,2.7-6.26.64-2.32-2.34-4.67-4.43-7.87-5.4.25-4.79,1.57-9.43,1.94-14.22.61-7.71-.89-15.17-2.47-22.62-10.3-25.26-28.31-42.07-55-48.47-9.16-2.2-19-2.65-27.5,3.43a5.71,5.71,0,0,1-5.62.85c-5.45,2.19-10.89,5.51-12.21,11a43,43,0,0,0-.76,12.64c.3,3.89.48,7.79.78,11.68s.12,7.74,5.22,9.93c4.12,1.77,3.15,9.07-.87,11-4.47-7.74-7.9-15.83-8.37-24.92-.58-5.1-1-10.21-.06-15.33-.59-11.42,11-27.45,26.92-31.27,15.14-3.64,29.42-.73,42.83,6.25,25.4,13.23,42.55,33.29,48.52,61.83,1.63,7.8,1.58,15.88-1.45,23.39C212.16,169.25,211.91,172.23,216,174.66Z"/><path class="cls-1" d="M402.42,275.15c-.88,7.68-1.62,15.37-2.68,23a16.18,16.18,0,0,1-5.4,10.28c-5.57,4.8-11.1,9.64-16.72,14.36-.67.56-1.43,1.83-2.62,1.05-1.4-.9-.12-1.94.18-2.78,7.29-20.65,10.47-41.78,7.48-63.64-.67-4.88,3-7.89,7.74-6.49a11.51,11.51,0,0,1,6.61,5.19A33.11,33.11,0,0,1,402.42,275.15Z"/><path class="cls-1" d="M449.67,157a59.32,59.32,0,0,1,.07,23.78Q449.71,168.84,449.67,157Z"/><path class="cls-1" d="M0,133a58.2,58.2,0,0,1,0,20.89Q0,143.47,0,133Z"/><path class="cls-1" d="M15.32,159.12a72,72,0,0,1,0,20.62A96,96,0,0,1,15.32,159.12Z"/><path class="cls-1" d="M150.17.52C143.58,1.59,137,1.93,130.43.42A105,105,0,0,1,150.17.52Z"/><path class="cls-1" d="M7.27,177.47a32.55,32.55,0,0,1,0-17.27Z"/><path class="cls-1" d="M97,104.9l.06,15.33A27.65,27.65,0,0,1,97,104.9Z"/><path class="cls-1" d="M351.31.48A31.64,31.64,0,0,1,336,.5,63.59,63.59,0,0,1,351.31.48Z"/><path class="cls-1" d="M5.94,184l2.19-1.22a12.94,12.94,0,0,1,0,5.81C5.52,187.73,6.52,185.5,5.94,184Z"/><path class="cls-1" d="M113.29,88.87c10.17-9.19,22.5-9.42,34.51-6.55,25.1,6,42.57,21.91,53.9,44.84a10.67,10.67,0,0,1,1.35,5.15c-1.11,3.91-2.88,7.14-7.56,7.38C192,134.52,189,129,185,124.25c-14.19-16.81-31-29.53-53.75-32-5.39-.59-10.71.49-15.89,1.89-1.86.5-4,2.28-5.34.36s1.52-2.82,2.35-4.27C112.67,89.74,113,89.31,113.29,88.87Z"/><path class="cls-1" d="M195.49,139.69a29.15,29.15,0,0,1,7.56-7.38c4.19,12.67,5.69,25.26-1.14,37.59-.32-1-1-2.06-.88-3C202,157.22,198.72,148.46,195.49,139.69Z"/></g></g></svg>